<?xml version="1.0" encoding="UTF-8"?>
<svg version="1.1" xmlns="http://www.w3.org/2000/svg" width="194" height="161">
<path d="M0 0 C64.02 0 128.04 0 194 0 C194 53.13 194 106.26 194 161 C129.98 161 65.96 161 0 161 C0 107.87 0 54.74 0 0 Z " fill="#FEFEFD" transform="translate(0,0)"/>
<path d="M0 0 C17.16 0 34.32 0 52 0 C49.25080195 2.74919805 46.8297712 4.45198936 43.5625 6.5 C23.56152568 19.74551858 9.56710893 38.91142755 3 62 C2.77570313 62.75796875 2.55140625 63.5159375 2.3203125 64.296875 C1.8639049 65.85991473 1.42843732 67.42906316 1 69 C0.67 69 0.34 69 0 69 C0 46.23 0 23.46 0 0 Z " fill="#C4D8B3" transform="translate(0,0)"/>
<path d="M0 0 C15.84 0 31.68 0 48 0 C48 17.49 48 34.98 48 53 C45.77264492 50.77264492 44.61572058 48.64789475 43.125 45.875 C42.58488281 44.88113281 42.04476562 43.88726562 41.48828125 42.86328125 C40.31967811 40.61502377 39.30611761 38.3874673 38.3125 36.0625 C31.08443558 21.23884246 14.14638643 8.79494763 0 1 C0 0.67 0 0.34 0 0 Z " fill="#C5D8B3" transform="translate(146,0)"/>
<path d="M0 0 C0.99 0 1.98 0 3 0 C5.76595745 17.14893617 5.76595745 17.14893617 3 26 C3.5775 25.67 4.155 25.34 4.75 25 C7 24 7 24 11 24 C9.55922954 27.36179774 7.75249979 29.59156268 5 32 C4.34 32 3.68 32 3 32 C2.34 33.98 1.68 35.96 1 38 C1.66 38 2.32 38 3 38 C2.75 39.875 2.75 39.875 2 42 C-0.0625 43.25 -0.0625 43.25 -2 44 C-2.66 43.34 -3.32 42.68 -4 42 C-7.30683466 42.28983269 -7.30683466 42.28983269 -10 44 C-10.26293056 48.03160191 -10.29404844 49.55892734 -8 53 C-6.88625 52.7525 -6.88625 52.7525 -5.75 52.5 C-3 52 -3 52 1 52 C2.75 54 2.75 54 4 56 C-0.19079067 59.46824055 -4.18672844 59.50599525 -9.40234375 59.3515625 C-12.99278653 58.86563791 -14.68367311 57.76464823 -17 55 C-19.03969799 51.30911793 -19.51184637 48.18007873 -19 44 C-17.12711824 40.39296847 -15.9101088 38.4550544 -12.25 36.625 C-11.5075 36.41875 -10.765 36.2125 -10 36 C-10.5554651 32.10488671 -11.64677786 29.68124737 -13.9375 26.5 C-17.32493918 21.77256645 -19.33799292 17.91487619 -19 12 C-14.97215247 14.29034467 -10.96287499 16.59825758 -7 19 C-6.9175 17.845 -6.835 16.69 -6.75 15.5 C-6.02185766 9.55878061 -3.27587213 4.91380819 0 0 Z " fill="#F0F7E3" transform="translate(99,31)"/>
<path d="M0 0 C2.64 0 5.28 0 8 0 C10.64 6.27 13.28 12.54 16 19 C16.99 18.01 17.98 17.02 19 16 C21.48046875 16.14453125 21.48046875 16.14453125 24.1875 16.8125 C25.08855469 17.02519531 25.98960938 17.23789063 26.91796875 17.45703125 C27.60503906 17.63621094 28.29210937 17.81539062 29 18 C29 17.01 29 16.02 29 15 C27.7625 14.9175 26.525 14.835 25.25 14.75 C22.28523201 14.3662623 21.04370996 14.02950422 18.5 12.3125 C16.50349045 9.23454778 16.32492191 7.6004165 17 4 C18.75 1.625 18.75 1.625 22 0 C32.09182531 -0.95408735 32.09182531 -0.95408735 36 1 C35.34 2.65 34.68 4.3 34 6 C31.03 5.67 28.06 5.34 25 5 C25 5.99 25 6.98 25 8 C26.0725 8.12375 27.145 8.2475 28.25 8.375 C34.03773585 9.33962264 34.03773585 9.33962264 36 11 C37.0625 14.3125 37.0625 14.3125 37 18 C35.234375 20.7109375 35.234375 20.7109375 32 23 C28.04478784 23.61314999 24.17765363 23.47093616 20.1875 23.3125 C19.11306641 23.28994141 18.03863281 23.26738281 16.93164062 23.24414062 C14.2863315 23.18535598 11.64388587 23.10323957 9 23 C8.67 21.68 8.34 20.36 8 19 C5.03 19 2.06 19 -1 19 C-1.33 20.32 -1.66 21.64 -2 23 C-4.31 23 -6.62 23 -9 23 C-8.42337177 17.84238083 -6.74838832 13.84610303 -4.5 9.25 C-4.01853516 8.24259766 -4.01853516 8.24259766 -3.52734375 7.21484375 C-2.37083731 4.80021315 -1.19732889 2.39465777 0 0 Z " fill="#A28F84" transform="translate(51,97)"/>
<path d="M0 0 C1.39379113 2.78758227 2.40813728 5.03393399 3.296875 7.94140625 C7.37875254 20.95318457 12.41807466 31.3306118 20.8515625 42.17578125 C23.02208748 45.02903499 25.01139898 48.01709847 27 51 C18.09 51 9.18 51 0 51 C0 34.17 0 17.34 0 0 Z " fill="#C4D8B3" transform="translate(0,110)"/>
<path d="M0 0 C3.45658479 2.04573386 4.7785359 3.66780385 7 7 C7.4775733 11.85532856 7.51341394 14.04398784 5.1875 18.375 C2.81979553 21.21624536 1.23089529 22.81642849 -2.48828125 23.37109375 C-11.05155127 23.57244311 -11.05155127 23.57244311 -14.625 20.625 C-18.10772735 16.77566977 -18.39195518 14.37805341 -18.359375 9.328125 C-17.75455722 5.40995764 -15.83123243 3.69641184 -13 1 C-9.062678 -0.968661 -4.29203754 -0.45897511 0 0 Z " fill="#9F8C80" transform="translate(144,97)"/>
<path d="M0 0 C3.17852316 1.64448689 5.37801764 3.75603527 7 7 C7.39771327 11.77255923 7.47453429 14.08482672 5.25 18.375 C2.57562054 21.49510937 0.69143965 22.73484032 -3.3671875 23.37109375 C-7.791729 23.48825451 -11.01062707 23.54275862 -14.5625 20.6875 C-17.90324696 17.00411233 -18.3958285 14.00976189 -18.359375 9.0703125 C-17.71820971 5.3766429 -15.64068388 3.57781045 -13 1 C-9.03716439 -0.98141781 -4.30789762 -0.55820645 0 0 Z " fill="#A08E82" transform="translate(122,67)"/>
<path d="M0 0 C7 0 7 0 9.21484375 1.75 C9.78332031 2.4925 10.35179687 3.235 10.9375 4 C11.52402344 4.7425 12.11054688 5.485 12.71484375 6.25 C13.13894531 6.8275 13.56304687 7.405 14 8 C14.33 5.36 14.66 2.72 15 0 C17.31 0 19.62 0 22 0 C22 7.59 22 15.18 22 23 C15 23 15 23 13.00390625 21.25 C12.52824219 20.5075 12.05257812 19.765 11.5625 19 C10.82193359 17.88625 10.82193359 17.88625 10.06640625 16.75 C9.71449219 16.1725 9.36257812 15.595 9 15 C8.67 17.64 8.34 20.28 8 23 C5.36 23 2.72 23 0 23 C0 15.41 0 7.82 0 0 Z " fill="#A08D82" transform="translate(153,97)"/>
<path d="M0 0 C2.64 0 5.28 0 8 0 C8 2.97 8 5.94 8 9 C9.98 9 11.96 9 14 9 C14 6.03 14 3.06 14 0 C16.64 0 19.28 0 22 0 C22 7.59 22 15.18 22 23 C19.36 23 16.72 23 14 23 C14 20.36 14 17.72 14 15 C12.02 15 10.04 15 8 15 C8 17.64 8 20.28 8 23 C5.36 23 2.72 23 0 23 C0 15.41 0 7.82 0 0 Z " fill="#A18F83" transform="translate(90,97)"/>
<path d="M0 0 C5.94 0 11.88 0 18 0 C18 1.98 18 3.96 18 6 C14.7 6 11.4 6 8 6 C8 6.99 8 7.98 8 9 C10.97 9 13.94 9 17 9 C17 10.98 17 12.96 17 15 C14.03 15 11.06 15 8 15 C8 15.66 8 16.32 8 17 C11.63 17 15.26 17 19 17 C19 18.98 19 20.96 19 23 C12.73 23 6.46 23 0 23 C0 15.41 0 7.82 0 0 Z " fill="#A08F84" transform="translate(60,67)"/>
<path d="M0 0 C0.33 0 0.66 0 1 0 C1 11.22 1 22.44 1 34 C-6.59 34 -14.18 34 -22 34 C-16 26 -16 26 -13.453125 23.078125 C-10.3685834 19.20771293 -8.09179726 15.0970488 -5.75 10.75 C-5.30398437 9.9353125 -4.85796875 9.120625 -4.3984375 8.28125 C-2.14882309 4.1670689 -2.14882309 4.1670689 0 0 Z " fill="#C5D8B3" transform="translate(193,127)"/>
<path d="M0 0 C0.94746094 -0.00515625 1.89492187 -0.0103125 2.87109375 -0.015625 C5.58802453 0.25251911 7.23715583 0.86468858 9.5625 2.25 C9.3125 4.125 9.3125 4.125 8.5625 6.25 C6.5 7.5 6.5 7.5 4.5625 8.25 C3.9025 7.59 3.2425 6.93 2.5625 6.25 C-0.74433466 6.53983269 -0.74433466 6.53983269 -3.4375 8.25 C-3.70043056 12.28160191 -3.73154844 13.80892734 -1.4375 17.25 C-0.32375 17.0025 -0.32375 17.0025 0.8125 16.75 C3.5625 16.25 3.5625 16.25 7.5625 16.25 C9.3125 18.25 9.3125 18.25 10.5625 20.25 C6.37170933 23.71824055 2.37577156 23.75599525 -2.83984375 23.6015625 C-6.43028653 23.11563791 -8.12117311 22.01464823 -10.4375 19.25 C-12.47719799 15.55911793 -12.94934637 12.43007873 -12.4375 8.25 C-9.19809468 2.44141115 -6.71927614 -0.03646826 0 0 Z " fill="#A08E82" transform="translate(92.4375,66.75)"/>
<path d="M0 0 C5.94 0 11.88 0 18 0 C18 1.98 18 3.96 18 6 C14.37 6 10.74 6 7 6 C7 7.32 7 8.64 7 10 C9.97 10 12.94 10 16 10 C16 11.98 16 13.96 16 16 C13.03 16 10.06 16 7 16 C7 18.31 7 20.62 7 23 C4.69 23 2.38 23 0 23 C0 15.41 0 7.82 0 0 Z " fill="#9F8D82" transform="translate(24,97)"/>
<path d="M0 0 C1.91928472 8.53697845 2.25945647 18.978714 -2.0234375 26.890625 C-2.95401719 28.30299417 -3.9687476 29.65937189 -5 31 C-8.96312858 26.17532173 -9.34338196 21.84922103 -9.2890625 15.73828125 C-8.7588527 10.71561814 -6.39197577 0 0 0 Z " fill="#ABC089" transform="translate(101,32)"/>
<path d="M0 0 C1.22589844 0.01353516 1.22589844 0.01353516 2.4765625 0.02734375 C3.41628906 0.04474609 3.41628906 0.04474609 4.375 0.0625 C4.375 3.0625 4.375 3.0625 3.375 5.0625 C1.39611039 5.78943904 -0.60454558 6.46066251 -2.625 7.0625 C-3.56771002 10.31889659 -3.56771002 10.31889659 -3.625 14.0625 C-1.06722339 17.35106993 1.51414394 19.48955864 5.375 21.0625 C5.045 21.7225 4.715 22.3825 4.375 23.0625 C-3.23906844 23.82390684 -3.23906844 23.82390684 -6.5234375 22.01953125 C-9.32354202 19.69066383 -11.38423969 17.78221651 -11.8984375 14.109375 C-12.08829043 9.81577801 -12.0592668 6.96667036 -9.25 3.5625 C-5.87115468 0.34455208 -4.5169288 -0.06452755 0 0 Z " fill="#9E8B7F" transform="translate(137.625,96.9375)"/>
<path d="M0 0 C1.36135152 2.60415126 2.44890182 5.14023541 3.33203125 7.94140625 C3.57099121 8.68535645 3.80995117 9.42930664 4.05615234 10.19580078 C4.30574707 10.97681152 4.5553418 11.75782227 4.8125 12.5625 C7.10361596 19.60629669 9.6936847 26.35810998 13 33 C11.3953036 32.99397863 9.79073181 32.94380823 8.1875 32.875 C6.84751953 32.84019531 6.84751953 32.84019531 5.48046875 32.8046875 C3 32 3 32 1.1875 29.78125 C-0.60401464 24.07669024 -0.31294544 18.56275084 -0.1875 12.625 C-0.17396484 11.41199219 -0.16042969 10.19898437 -0.14648438 8.94921875 C-0.11124582 5.96568794 -0.06197525 2.98307542 0 0 Z " fill="#C4D7B2" transform="translate(0,110)"/>
<path d="M0 0 C2.31 0 4.62 0 7 0 C7 7.59 7 15.18 7 23 C4.69 23 2.38 23 0 23 C0 15.41 0 7.82 0 0 Z " fill="#9D8A7F" transform="translate(116,97)"/>
<path d="M0 0 C6.6148876 3.3074438 9.76606463 6.42158742 12.25 13.625 C13 17 13 17 13 21 C8.87572988 19.69059675 7.10410284 18.34300587 4.8125 14.6875 C4.32394531 13.92824219 3.83539063 13.16898438 3.33203125 12.38671875 C0.97090885 8.15608595 -0.27861871 4.87582751 0 0 Z " fill="#B1C298" transform="translate(80,43)"/>
<path d="M0 0 C0.33 0 0.66 0 1 0 C1 5.94 1 11.88 1 18 C-2.96 18.99 -6.92 19.98 -11 21 C-10.113125 19.39125 -9.22625 17.7825 -8.3125 16.125 C-5.41121551 10.81172129 -2.66458045 5.43527251 0 0 Z " fill="#C6D8B7" transform="translate(193,127)"/>
<path d="M0 0 C-0.56386503 1.65260442 -1.15178717 3.29701637 -1.75 4.9375 C-2.07484375 5.85402344 -2.3996875 6.77054687 -2.734375 7.71484375 C-4 10 -4 10 -6.015625 10.69140625 C-6.67046875 10.79324219 -7.3253125 10.89507812 -8 11 C-8.66 11.66 -9.32 12.32 -10 13 C-10 11.02 -10 9.04 -10 7 C-12.97 7 -15.94 7 -19 7 C-19 5.68 -19 4.36 -19 3 C-15.37 3 -11.74 3 -8 3 C-7.67 2.01 -7.34 1.02 -7 0 C-2.25 -1.125 -2.25 -1.125 0 0 Z " fill="#F9F7F2" transform="translate(50,100)"/>
<path d="M0 0 C3.29714793 0.32971479 4.6226839 0.6226839 7 3 C7.38080215 6.50337981 7.40245078 8.36278626 5.5 11.375 C5.005 11.91125 4.51 12.4475 4 13 C1.625 12.6875 1.625 12.6875 -1 12 C-3 9 -3 9 -2.75 5.4375 C-2 2 -2 2 0 0 Z " fill="#F8F6F3" transform="translate(136,102)"/>
<path d="M0 0 C0.33 0 0.66 0 1 0 C1 7.59 1 15.18 1 23 C-2 20 -2 20 -2.29296875 17.73828125 C-2.1953125 15.4921875 -2.09765625 13.24609375 -2 11 C-5.63 10.01 -9.26 9.02 -13 8 C-13 7.01 -13 6.02 -13 5 C-12.07767578 5.06960937 -12.07767578 5.06960937 -11.13671875 5.140625 C-8.70396294 5.24926481 -6.41956887 5.28794159 -4 5 C-1.92808881 3.21429126 -1.92808881 3.21429126 -1 1 C-0.67 0.67 -0.34 0.34 0 0 Z " fill="#F7F3EC" transform="translate(89,97)"/>
<path d="M0 0 C1.9375 0.8125 1.9375 0.8125 3.9375 2.8125 C4.48936722 8.88303942 4.48936722 8.88303942 2.75 11.8125 C0.9375 12.8125 0.9375 12.8125 -1.6875 12.625 C-4.0625 11.8125 -4.0625 11.8125 -5.0625 9.8125 C-5.51852606 3.54214169 -5.51852606 3.54214169 -3.8125 0.8125 C-2.0625 -0.1875 -2.0625 -0.1875 0 0 Z " fill="#FAF7F4" transform="translate(117.0625,72.1875)"/>
<path d="M0 0 C2.25 -0.25 2.25 -0.25 5 0 C5.8971875 0.928125 5.8971875 0.928125 6.8125 1.875 C9.93534245 4.90861838 12.76648736 5.15329747 17 6 C17 6.99 17 7.98 17 9 C9.25 8.125 9.25 8.125 7 7 C6.34 8.65 5.68 10.3 5 12 C2.32522069 9.32522069 1.3535886 6.507025 0 3 C0 2.01 0 1.02 0 0 Z " fill="#F7F3ED" transform="translate(63,106)"/>
<path d="M0 0 C0.33 0 0.66 0 1 0 C1 1.98 1 3.96 1 6 C1.66 6 2.32 6 3 6 C3 4.02 3 2.04 3 0 C3.33 0 3.66 0 4 0 C4 7.59 4 15.18 4 23 C3.34 22.01 2.68 21.02 2 20 C1.34 20.99 0.68 21.98 0 23 C0 15.41 0 7.82 0 0 Z " fill="#EEE9E3" transform="translate(112,97)"/>
<path d="M0 0 C2 2 2 2 3 5 C6.63 5.66 10.26 6.32 14 7 C14.33 8.32 14.66 9.64 15 11 C10.13103697 10.40380045 5.67209049 9.43023178 1 8 C1 10.31 1 12.62 1 15 C0.67 15 0.34 15 0 15 C0 10.05 0 5.1 0 0 Z " fill="#AABC99" transform="translate(0,136)"/>
<path d="M0 0 C1.92645218 8.5688593 1.21085227 16.57112571 -1 25 C-1.82514784 22.16615892 -2.07936233 19.83064749 -1.87890625 16.890625 C-1.83056641 16.13652344 -1.78222656 15.38242187 -1.73242188 14.60546875 C-1.67634766 13.82816406 -1.62027344 13.05085938 -1.5625 12.25 C-1.51029297 11.45722656 -1.45808594 10.66445313 -1.40429688 9.84765625 C-1.27510676 7.89806003 -1.13830035 5.94897114 -1 4 C-1.99 4 -2.98 4 -4 4 C-4.33 5.65 -4.66 7.3 -5 9 C-5.66 9 -6.32 9 -7 9 C-4.4 0 -4.4 0 0 0 Z " fill="#B4C29C" transform="translate(101,32)"/>
<path d="M0 0 C2 3 2 3 2 7 C-3.94 7.495 -3.94 7.495 -10 8 C-10.33 7.34 -10.66 6.68 -11 6 C-10.67 5.34 -10.34 4.68 -10 4 C-8.66923011 3.65657551 -7.33568021 3.32380126 -6 3 C-5.34 2.34 -4.68 1.68 -4 1 C-1.875 1.375 -1.875 1.375 0 2 C0 1.34 0 0.68 0 0 Z " fill="#9C897C" transform="translate(57,109)"/>
<path d="M0 0 C-1.56204726 4.21752761 -4.45134252 6.37399346 -8 9 C-10.375 9.8125 -10.375 9.8125 -12 10 C-11.08743067 5.98469495 -10.34949983 4.28871725 -7.125 1.625 C-4 0 -4 0 0 0 Z " fill="#B1C299" transform="translate(110,55)"/>
<path d="M0 0 C1.40369382 2.66127825 2.45718989 5.21971224 3.2890625 8.109375 C3.61777344 9.24052734 3.61777344 9.24052734 3.953125 10.39453125 C4.17484375 11.17183594 4.3965625 11.94914062 4.625 12.75 C4.85445313 13.54277344 5.08390625 14.33554688 5.3203125 15.15234375 C5.88365481 17.10056923 6.44229292 19.05015388 7 21 C6.34 21.33 5.68 21.66 5 22 C5 20.68 5 19.36 5 18 C4.34 18 3.68 18 3 18 C0.22528921 11.75690073 -0.37634203 6.80203375 0 0 Z " fill="#CCD9C1" transform="translate(0,110)"/>
<path d="M0 0 C0 0.99 0 1.98 0 3 C-1.57914015 3.53341184 -3.16354387 4.05125763 -4.75 4.5625 C-5.63171875 4.85253906 -6.5134375 5.14257812 -7.421875 5.44140625 C-10.07834316 6.01697435 -11.47031106 5.89248371 -14 5 C-9.35996338 1.57521107 -5.78333166 0 0 0 Z " fill="#A8B997" transform="translate(194,145)"/>
<path d="M0 0 C0 1.65 0 3.3 0 5 C-3.3 5 -6.6 5 -10 5 C-9.34 3.68 -8.68 2.36 -8 1 C-5.26314379 0.42381975 -2.80373366 0 0 0 Z " fill="#9E897D" transform="translate(41,97)"/>
<path d="M0 0 C4.875 4.625 4.875 4.625 6 8 C5.01 8.99 4.02 9.98 3 11 C0.87953208 7.46588679 0.46800711 4.05606165 0 0 Z " fill="#F6FAF0" transform="translate(84,57)"/>
<path d="M0 0 C2.475 0.495 2.475 0.495 5 1 C5.625 3.8125 5.625 3.8125 6 7 C5.01 8.485 5.01 8.485 4 10 C3.32845067 8.71086513 2.66291141 7.41859796 2 6.125 C1.62875 5.40570313 1.2575 4.68640625 0.875 3.9453125 C0 2 0 2 0 0 Z " fill="#A8BF87" transform="translate(82,47)"/>
<path d="M0 0 C0.33 0 0.66 0 1 0 C1.41750113 6.05376634 1.11311805 9.181776 -3 14 C-3.99 14.33 -4.98 14.66 -6 15 C-4.98130536 12.80588847 -4.02435794 11.02825521 -2.4375 9.1875 C-0.49054811 6.22474713 -0.33509311 3.4849683 0 0 Z " fill="#AAA099" transform="translate(150,104)"/>
<path d="M0 0 C0.66 0.66 1.32 1.32 2 2 C1.625 5.625 1.625 5.625 1 9 C0.01 9 -0.98 9 -2 9 C-2.33 8.34 -2.66 7.68 -3 7 C-2.06421005 4.64018187 -1.06652192 2.30368736 0 0 Z " fill="#A1958C" transform="translate(86,108)"/>
<path d="M0 0 C0.33 0.99 0.66 1.98 1 3 C1.66 3.33 2.32 3.66 3 4 C2.67 5.65 2.34 7.3 2 9 C1.34 9 0.68 9 0 9 C-0.33 8.01 -0.66 7.02 -1 6 C-1.99 6 -2.98 6 -4 6 C-4 4 -4 4 -2 1.875 C-1.34 1.25625 -0.68 0.6375 0 0 Z " fill="#A69386" transform="translate(142,111)"/>
<path d="M0 0 C0.33 0.99 0.66 1.98 1 3 C0.54625 3.598125 0.0925 4.19625 -0.375 4.8125 C-2.37803712 7.50889612 -2.62538204 9.70336199 -3 13 C-3.33 13 -3.66 13 -4 13 C-4.49230769 5.73846154 -4.49230769 5.73846154 -2 2 C-1.34 1.34 -0.68 0.68 0 0 Z " fill="#A2958B" transform="translate(108,69)"/>
<path d="M0 0 C0.99 0.33 1.98 0.66 3 1 C2.01 2.485 2.01 2.485 1 4 C0.60612212 6.32387947 0.26513915 8.65793749 0 11 C-0.33 11 -0.66 11 -1 11 C-1.33 7.7 -1.66 4.4 -2 1 C-1.34 0.67 -0.68 0.34 0 0 Z " fill="#F4EEE8" transform="translate(126,100)"/>
<path d="M0 0 C1.98 0 3.96 0 6 0 C5.34 1.32 4.68 2.64 4 4 C0.7 3.67 -2.6 3.34 -6 3 C-6 2.67 -6 2.34 -6 2 C-4.02 2 -2.04 2 0 2 C0 1.34 0 0.68 0 0 Z " fill="#E9E9DB" transform="translate(96,64)"/>
<path d="M0 0 C0.99 0.33 1.98 0.66 3 1 C2.67 1.99 2.34 2.98 2 4 C-0.375 4.625 -0.375 4.625 -3 5 C-3.66 4.34 -4.32 3.68 -5 3 C-2.6875 1.4375 -2.6875 1.4375 0 0 Z " fill="#F4FAEE" transform="translate(52,0)"/>
<path d="M0 0 C2.31 0 4.62 0 7 0 C7 0.66 7 1.32 7 2 C6.34 2 5.68 2 5 2 C5 2.66 5 3.32 5 4 C4.34 4 3.68 4 3 4 C3 3.34 3 2.68 3 2 C2.01 2.33 1.02 2.66 0 3 C0 2.01 0 1.02 0 0 Z " fill="#988A81" transform="translate(51,97)"/>
<path d="M0 0 C3.25696479 0.41755959 4.63443291 0.63443291 7 3 C6.625 5.125 6.625 5.125 6 7 C6 6.01 6 5.02 6 4 C5.21625 3.690625 4.4325 3.38125 3.625 3.0625 C1 2 1 2 -1 1 C-0.67 0.67 -0.34 0.34 0 0 Z " fill="#F3EBE3" transform="translate(136,102)"/>
<path d="M0 0 C3.16115776 1.36983503 3.9927092 1.9890638 6 5 C4.02 5.99 4.02 5.99 2 7 C1.855625 6.401875 1.71125 5.80375 1.5625 5.1875 C1.1127561 3.43849596 0.57107659 1.71322977 0 0 Z " fill="#A69F96" transform="translate(97,82)"/>
<path d="M0 0 C-1.4638611 4.39158329 -3.97831338 4.87947433 -8 7 C-6.47663111 3.31852519 -4.31953005 0 0 0 Z " fill="#CCD8BF" transform="translate(47,2)"/>
</svg>
